<svg width="100" height="19" viewBox="0 0 100 19" fill="none" xmlns="http://www.w3.org/2000/svg">
<g clip-path="url(#clip0_0_202)">
<path d="M9.30327 6.08203C10.733 4.65234 12.4556 3.9375 14.4712 3.9375C16.4869 3.9375 18.2095 4.65234 19.6392 6.08203C21.0689 7.51172 21.7837 9.23438 21.7837 11.25C21.7837 13.2656 21.0689 14.9883 19.6392 16.418C18.2095 17.8477 16.4869 18.5625 14.4712 18.5625C12.4556 18.5625 10.733 17.8477 9.30327 16.418C7.87359 14.9883 7.15874 13.2656 7.15874 11.25C7.15874 9.23438 7.87359 7.51172 9.30327 6.08203ZM18.8306 6.89062C17.6353 5.67187 16.1822 5.0625 14.4712 5.0625C12.7603 5.0625 11.2955 5.67187 10.0767 6.89062C8.8814 8.08594 8.28374 9.53906 8.28374 11.25C8.28374 12.9609 8.8814 14.4258 10.0767 15.6445C11.2955 16.8398 12.7603 17.4375 14.4712 17.4375C16.1822 17.4375 17.6353 16.8398 18.8306 15.6445C20.0494 14.4258 20.6587 12.9609 20.6587 11.25C20.6587 9.53906 20.0494 8.08594 18.8306 6.89062ZM13.9087 7.875H15.0337V10.6875H17.8462V11.8125H15.0337V14.625H13.9087V11.8125H11.0962V10.6875H13.9087V7.875Z" fill="#4D7CFE"/>
<path d="M39.814 15C39.734 15 39.666 14.972 39.61 14.916C39.554 14.86 39.526 14.792 39.526 14.712V6.9C39.526 6.812 39.554 6.74 39.61 6.684C39.666 6.628 39.734 6.6 39.814 6.6H40.738C40.85 6.6 40.93 6.628 40.978 6.684C41.034 6.732 41.07 6.768 41.086 6.792L44.542 12.168V6.9C44.542 6.812 44.566 6.74 44.614 6.684C44.67 6.628 44.742 6.6 44.83 6.6H45.838C45.926 6.6 45.998 6.628 46.054 6.684C46.11 6.74 46.138 6.812 46.138 6.9V14.7C46.138 14.788 46.11 14.86 46.054 14.916C45.998 14.972 45.93 15 45.85 15H44.914C44.802 15 44.722 14.972 44.674 14.916C44.626 14.86 44.59 14.824 44.566 14.808L41.122 9.552V14.712C41.122 14.792 41.094 14.86 41.038 14.916C40.982 14.972 40.91 15 40.822 15H39.814ZM48.2983 15C48.2183 15 48.1503 14.972 48.0943 14.916C48.0383 14.86 48.0103 14.792 48.0103 14.712V6.9C48.0103 6.812 48.0383 6.74 48.0943 6.684C48.1503 6.628 48.2183 6.6 48.2983 6.6H53.5783C53.6663 6.6 53.7383 6.628 53.7943 6.684C53.8503 6.74 53.8783 6.812 53.8783 6.9V7.692C53.8783 7.772 53.8503 7.84 53.7943 7.896C53.7383 7.952 53.6663 7.98 53.5783 7.98H49.6303V10.104H53.3143C53.4023 10.104 53.4743 10.132 53.5303 10.188C53.5863 10.236 53.6143 10.304 53.6143 10.392V11.136C53.6143 11.224 53.5863 11.296 53.5303 11.352C53.4743 11.4 53.4023 11.424 53.3143 11.424H49.6303V13.62H53.6743C53.7623 13.62 53.8343 13.648 53.8903 13.704C53.9463 13.76 53.9743 13.832 53.9743 13.92V14.712C53.9743 14.792 53.9463 14.86 53.8903 14.916C53.8343 14.972 53.7623 15 53.6743 15H48.2983ZM56.8552 15C56.7352 15 56.6392 14.968 56.5672 14.904C56.5032 14.832 56.4592 14.744 56.4352 14.64L55.0072 6.948C55.0072 6.924 55.0032 6.904 54.9952 6.888C54.9952 6.872 54.9952 6.86 54.9952 6.852C54.9952 6.78 55.0192 6.72 55.0672 6.672C55.1232 6.624 55.1832 6.6 55.2472 6.6H56.3032C56.5032 6.6 56.6152 6.68 56.6392 6.84L57.6352 12.276L58.7152 8.76C58.7392 8.696 58.7792 8.632 58.8352 8.568C58.8992 8.496 58.9912 8.46 59.1112 8.46H59.7592C59.8872 8.46 59.9792 8.496 60.0352 8.568C60.0912 8.632 60.1272 8.696 60.1432 8.76L61.2352 12.264L62.2312 6.84C62.2552 6.68 62.3672 6.6 62.5672 6.6H63.6232C63.6872 6.6 63.7432 6.624 63.7912 6.672C63.8392 6.72 63.8632 6.78 63.8632 6.852C63.8632 6.86 63.8632 6.872 63.8632 6.888C63.8632 6.904 63.8592 6.924 63.8512 6.948L62.4232 14.64C62.4072 14.744 62.3632 14.832 62.2912 14.904C62.2192 14.968 62.1232 15 62.0032 15H61.1992C61.0792 15 60.9832 14.968 60.9112 14.904C60.8472 14.84 60.8032 14.772 60.7792 14.7L59.4352 10.692L58.0912 14.7C58.0592 14.772 58.0112 14.84 57.9472 14.904C57.8832 14.968 57.7872 15 57.6592 15H56.8552ZM69.7167 15C69.6367 15 69.5687 14.972 69.5127 14.916C69.4567 14.86 69.4287 14.792 69.4287 14.712V8.076H67.2087C67.1287 8.076 67.0607 8.048 67.0047 7.992C66.9487 7.936 66.9207 7.868 66.9207 7.788V6.9C66.9207 6.812 66.9487 6.74 67.0047 6.684C67.0607 6.628 67.1287 6.6 67.2087 6.6H73.3287C73.4167 6.6 73.4887 6.628 73.5447 6.684C73.6007 6.74 73.6287 6.812 73.6287 6.9V7.788C73.6287 7.868 73.6007 7.936 73.5447 7.992C73.4887 8.048 73.4167 8.076 73.3287 8.076H71.1207V14.712C71.1207 14.792 71.0927 14.86 71.0367 14.916C70.9807 14.972 70.9087 15 70.8207 15H69.7167ZM73.4514 15C73.3874 15 73.3274 14.976 73.2714 14.928C73.2234 14.88 73.1994 14.82 73.1994 14.748C73.1994 14.716 73.2074 14.68 73.2234 14.64L76.1154 6.9C76.1394 6.82 76.1834 6.752 76.2474 6.696C76.3194 6.632 76.4154 6.6 76.5354 6.6H77.8434C77.9634 6.6 78.0554 6.632 78.1194 6.696C78.1834 6.752 78.2314 6.82 78.2634 6.9L81.1554 14.64C81.1634 14.68 81.1674 14.716 81.1674 14.748C81.1674 14.82 81.1434 14.88 81.0954 14.928C81.0474 14.976 80.9914 15 80.9274 15H79.8834C79.7714 15 79.6874 14.976 79.6314 14.928C79.5834 14.872 79.5514 14.82 79.5354 14.772L78.9714 13.308H75.4074L74.8434 14.772C74.8274 14.82 74.7914 14.872 74.7354 14.928C74.6874 14.976 74.6074 15 74.4954 15H73.4514ZM75.8274 11.928H78.5514L77.1834 8.22L75.8274 11.928ZM85.0865 15.12C84.3425 15.12 83.7185 15.012 83.2145 14.796C82.7185 14.572 82.3385 14.284 82.0745 13.932C81.8185 13.572 81.6825 13.196 81.6665 12.804C81.6665 12.732 81.6905 12.672 81.7385 12.624C81.7865 12.576 81.8465 12.552 81.9185 12.552H82.9865C83.0905 12.552 83.1665 12.576 83.2145 12.624C83.2705 12.664 83.3185 12.716 83.3585 12.78C83.4065 12.932 83.4985 13.084 83.6345 13.236C83.7705 13.38 83.9545 13.5 84.1865 13.596C84.4265 13.692 84.7265 13.74 85.0865 13.74C85.6625 13.74 86.0905 13.644 86.3705 13.452C86.6585 13.26 86.8025 13 86.8025 12.672C86.8025 12.44 86.7265 12.256 86.5745 12.12C86.4225 11.976 86.1865 11.848 85.8665 11.736C85.5545 11.616 85.1385 11.492 84.6185 11.364C84.0185 11.22 83.5145 11.048 83.1065 10.848C82.7065 10.64 82.4025 10.38 82.1945 10.068C81.9945 9.756 81.8945 9.36 81.8945 8.88C81.8945 8.416 82.0185 8.004 82.2665 7.644C82.5225 7.284 82.8825 7 83.3465 6.792C83.8185 6.584 84.3785 6.48 85.0265 6.48C85.5465 6.48 86.0065 6.552 86.4065 6.696C86.8065 6.832 87.1385 7.016 87.4025 7.248C87.6665 7.472 87.8665 7.716 88.0025 7.98C88.1465 8.236 88.2225 8.488 88.2305 8.736C88.2305 8.8 88.2065 8.86 88.1585 8.916C88.1185 8.964 88.0585 8.988 87.9785 8.988H86.8625C86.7985 8.988 86.7345 8.972 86.6705 8.94C86.6065 8.908 86.5545 8.848 86.5145 8.76C86.4665 8.512 86.3105 8.3 86.0465 8.124C85.7825 7.948 85.4425 7.86 85.0265 7.86C84.5945 7.86 84.2465 7.94 83.9825 8.1C83.7185 8.26 83.5865 8.508 83.5865 8.844C83.5865 9.068 83.6505 9.256 83.7785 9.408C83.9145 9.552 84.1265 9.68 84.4145 9.792C84.7105 9.904 85.0985 10.024 85.5785 10.152C86.2585 10.304 86.8145 10.48 87.2465 10.68C87.6785 10.88 87.9945 11.136 88.1945 11.448C88.3945 11.752 88.4945 12.14 88.4945 12.612C88.4945 13.14 88.3505 13.592 88.0625 13.968C87.7825 14.336 87.3865 14.62 86.8745 14.82C86.3625 15.02 85.7665 15.12 85.0865 15.12ZM90.1577 15C90.0777 15 90.0097 14.972 89.9537 14.916C89.8977 14.86 89.8697 14.792 89.8697 14.712V6.9C89.8697 6.812 89.8977 6.74 89.9537 6.684C90.0097 6.628 90.0777 6.6 90.1577 6.6H91.2137C91.3017 6.6 91.3737 6.628 91.4297 6.684C91.4857 6.74 91.5137 6.812 91.5137 6.9V9.708L94.2257 6.816C94.2577 6.776 94.3097 6.732 94.3817 6.684C94.4617 6.628 94.5657 6.6 94.6937 6.6H95.8817C95.9457 6.6 96.0017 6.624 96.0497 6.672C96.1057 6.72 96.1337 6.78 96.1337 6.852C96.1337 6.908 96.1177 6.956 96.0857 6.996L92.7857 10.62L96.3137 14.592C96.3537 14.64 96.3737 14.692 96.3737 14.748C96.3737 14.82 96.3457 14.88 96.2897 14.928C96.2417 14.976 96.1857 15 96.1217 15H94.8857C94.7497 15 94.6417 14.972 94.5617 14.916C94.4897 14.852 94.4417 14.808 94.4177 14.784L91.5137 11.604V14.712C91.5137 14.792 91.4857 14.86 91.4297 14.916C91.3737 14.972 91.3017 15 91.2137 15H90.1577Z" fill="#4D7CFE"/>
</g>
<defs>
<clipPath id="clip0_0_202">
<rect width="100" height="19" fill="white"/>
</clipPath>
</defs>
</svg>
